<mxfile host="app.diagrams.net" modified="2021-04-12T02:57:01.080Z" agent="5.0 (Macintosh; Intel Mac OS X 11_2_3) AppleWebKit/537.36 (KHTML, like Gecko) Chrome/89.0.4389.114 Safari/537.36" etag="0dQ8o_nvRAqhpSHjdO1f" version="14.5.10" type="github">
  <diagram name="Page-1" id="13e1069c-82ec-6db2-03f1-153e76fe0fe0">
    <mxGraphModel dx="786" dy="427" grid="1" gridSize="10" guides="1" tooltips="1" connect="1" arrows="1" fold="1" page="1" pageScale="1" pageWidth="1100" pageHeight="850" background="#ffffff" math="0" shadow="0">
      <root>
        <mxCell id="0" />
        <mxCell id="1" parent="0" />
        <mxCell id="kHQ6_kNxc5rF-60axpAb-1" value=":Object" style="shape=umlLifeline;perimeter=lifelinePerimeter;whiteSpace=wrap;html=1;container=1;collapsible=0;recursiveResize=0;outlineConnect=0;" parent="1" vertex="1">
          <mxGeometry x="27" y="39" width="100" height="300" as="geometry" />
        </mxCell>
        <mxCell id="kHQ6_kNxc5rF-60axpAb-2" value="«actor»&lt;br&gt;&lt;b&gt;Actor: GVCN&lt;br&gt;&lt;/b&gt;" style="html=1;" parent="1" vertex="1">
          <mxGeometry x="2" y="39" width="150" height="40" as="geometry" />
        </mxCell>
        <mxCell id="kHQ6_kNxc5rF-60axpAb-3" value=":Object" style="shape=umlLifeline;perimeter=lifelinePerimeter;whiteSpace=wrap;html=1;container=1;collapsible=0;recursiveResize=0;outlineConnect=0;" parent="1" vertex="1">
          <mxGeometry x="182" y="39" width="140" height="300" as="geometry" />
        </mxCell>
        <mxCell id="kHQ6_kNxc5rF-60axpAb-4" value="«boundary»&lt;br&gt;&lt;b&gt;Boundary: View Lớp học&lt;/b&gt;" style="html=1;" parent="kHQ6_kNxc5rF-60axpAb-3" vertex="1">
          <mxGeometry x="-28" width="203" height="40" as="geometry" />
        </mxCell>
        <mxCell id="kHQ6_kNxc5rF-60axpAb-5" value="" style="html=1;points=[];perimeter=orthogonalPerimeter;" parent="kHQ6_kNxc5rF-60axpAb-3" vertex="1">
          <mxGeometry x="70" y="50" width="10" height="96" as="geometry" />
        </mxCell>
        <mxCell id="kHQ6_kNxc5rF-60axpAb-6" value="" style="html=1;points=[];perimeter=orthogonalPerimeter;" parent="kHQ6_kNxc5rF-60axpAb-3" vertex="1">
          <mxGeometry x="70" y="157" width="10" height="69" as="geometry" />
        </mxCell>
        <mxCell id="kHQ6_kNxc5rF-60axpAb-7" value=":Object" style="shape=umlLifeline;perimeter=lifelinePerimeter;whiteSpace=wrap;html=1;container=1;collapsible=0;recursiveResize=0;outlineConnect=0;" parent="1" vertex="1">
          <mxGeometry x="375" y="39" width="150" height="300" as="geometry" />
        </mxCell>
        <mxCell id="kHQ6_kNxc5rF-60axpAb-8" value="«boundary»&lt;br&gt;&lt;b&gt;Boundary: Trang thông báo&lt;/b&gt;" style="html=1;" parent="kHQ6_kNxc5rF-60axpAb-7" vertex="1">
          <mxGeometry x="-15" width="168" height="40" as="geometry" />
        </mxCell>
        <mxCell id="kHQ6_kNxc5rF-60axpAb-9" value=":Object" style="shape=umlLifeline;perimeter=lifelinePerimeter;whiteSpace=wrap;html=1;container=1;collapsible=0;recursiveResize=0;outlineConnect=0;" parent="1" vertex="1">
          <mxGeometry x="555" y="40" width="220" height="300" as="geometry" />
        </mxCell>
        <mxCell id="kHQ6_kNxc5rF-60axpAb-10" value="«control»&lt;br&gt;&lt;b&gt;Control: Controller quản lí Lớp học&lt;/b&gt;" style="html=1;" parent="kHQ6_kNxc5rF-60axpAb-9" vertex="1">
          <mxGeometry x="-15" width="235" height="40" as="geometry" />
        </mxCell>
        <mxCell id="kHQ6_kNxc5rF-60axpAb-11" value="" style="html=1;points=[];perimeter=orthogonalPerimeter;" parent="kHQ6_kNxc5rF-60axpAb-9" vertex="1">
          <mxGeometry x="105" y="190" width="10" height="50" as="geometry" />
        </mxCell>
        <mxCell id="kHQ6_kNxc5rF-60axpAb-12" value=":Object" style="shape=umlLifeline;perimeter=lifelinePerimeter;whiteSpace=wrap;html=1;container=1;collapsible=0;recursiveResize=0;outlineConnect=0;" parent="1" vertex="1">
          <mxGeometry x="795" y="40" width="180" height="300" as="geometry" />
        </mxCell>
        <mxCell id="kHQ6_kNxc5rF-60axpAb-13" value="«entity»&lt;br&gt;&lt;b&gt;Entity: Student, Class, Teacher&amp;nbsp;&lt;/b&gt;" style="html=1;" parent="kHQ6_kNxc5rF-60axpAb-12" vertex="1">
          <mxGeometry x="-15" width="195" height="40" as="geometry" />
        </mxCell>
        <mxCell id="kHQ6_kNxc5rF-60axpAb-14" value="" style="html=1;points=[];perimeter=orthogonalPerimeter;" parent="kHQ6_kNxc5rF-60axpAb-12" vertex="1">
          <mxGeometry x="85" y="199" width="10" height="40" as="geometry" />
        </mxCell>
        <mxCell id="kHQ6_kNxc5rF-60axpAb-15" value="2: Chọn thêm file CSV" style="html=1;verticalAlign=bottom;startArrow=oval;startFill=1;endArrow=block;startSize=8;entryX=0.1;entryY=0.344;entryDx=0;entryDy=0;entryPerimeter=0;" parent="1" target="kHQ6_kNxc5rF-60axpAb-5" edge="1">
          <mxGeometry width="60" relative="1" as="geometry">
            <mxPoint x="76.5" y="122" as="sourcePoint" />
            <mxPoint x="245.5" y="122" as="targetPoint" />
            <Array as="points">
              <mxPoint x="140" y="122" />
            </Array>
          </mxGeometry>
        </mxCell>
        <mxCell id="kHQ6_kNxc5rF-60axpAb-16" value="8 : Gửi thông tin người dùng&amp;nbsp;" style="html=1;verticalAlign=bottom;startArrow=oval;startFill=1;endArrow=block;startSize=8;exitX=1;exitY=0.65;exitDx=0;exitDy=0;exitPerimeter=0;entryX=-0.1;entryY=0.2;entryDx=0;entryDy=0;entryPerimeter=0;" parent="1" edge="1">
          <mxGeometry width="60" relative="1" as="geometry">
            <mxPoint x="261.25" y="250" as="sourcePoint" />
            <mxPoint x="659.0000000000002" y="249.9999999999999" as="targetPoint" />
          </mxGeometry>
        </mxCell>
        <mxCell id="kHQ6_kNxc5rF-60axpAb-17" value="9 : Thêm mới CSDL&amp;nbsp;" style="html=1;verticalAlign=bottom;startArrow=oval;startFill=1;endArrow=block;startSize=8;exitX=0.8;exitY=0.39;exitDx=0;exitDy=0;exitPerimeter=0;" parent="1" edge="1">
          <mxGeometry width="60" relative="1" as="geometry">
            <mxPoint x="668" y="258.5" as="sourcePoint" />
            <mxPoint x="884.5" y="258.5" as="targetPoint" />
          </mxGeometry>
        </mxCell>
        <mxCell id="kHQ6_kNxc5rF-60axpAb-18" value="" style="html=1;points=[];perimeter=orthogonalPerimeter;" parent="1" vertex="1">
          <mxGeometry x="880" y="300" width="10" height="40" as="geometry" />
        </mxCell>
        <mxCell id="kHQ6_kNxc5rF-60axpAb-19" value="10 : Kiểm tra thông tin người dùng" style="edgeStyle=orthogonalEdgeStyle;html=1;align=left;spacingLeft=2;endArrow=block;rounded=0;exitX=0.95;exitY=0.547;exitDx=0;exitDy=0;exitPerimeter=0;" parent="1" source="kHQ6_kNxc5rF-60axpAb-14" edge="1">
          <mxGeometry relative="1" as="geometry">
            <mxPoint x="932" y="259" as="sourcePoint" />
            <Array as="points">
              <mxPoint x="920" y="261" />
              <mxPoint x="920" y="309" />
            </Array>
            <mxPoint x="892" y="309" as="targetPoint" />
          </mxGeometry>
        </mxCell>
        <mxCell id="kHQ6_kNxc5rF-60axpAb-20" value="3 : Kiểm tra trạng thái đăng nhập" style="html=1;verticalAlign=bottom;endArrow=open;dashed=1;endSize=8;" parent="1" edge="1">
          <mxGeometry relative="1" as="geometry">
            <mxPoint x="251.5" y="146" as="sourcePoint" />
            <mxPoint x="76.5" y="146" as="targetPoint" />
            <Array as="points">
              <mxPoint x="190" y="146" />
            </Array>
          </mxGeometry>
        </mxCell>
        <mxCell id="kHQ6_kNxc5rF-60axpAb-21" value="4 : Tải file CSV" style="html=1;verticalAlign=bottom;startArrow=oval;startFill=1;endArrow=block;startSize=8;" parent="1" edge="1">
          <mxGeometry width="60" relative="1" as="geometry">
            <mxPoint x="75.5" y="171" as="sourcePoint" />
            <mxPoint x="250.5" y="171" as="targetPoint" />
            <Array as="points">
              <mxPoint x="139" y="171" />
            </Array>
          </mxGeometry>
        </mxCell>
        <mxCell id="kHQ6_kNxc5rF-60axpAb-22" value="5 : Đọc file CSV&amp;nbsp;" style="edgeStyle=orthogonalEdgeStyle;html=1;align=left;spacingLeft=2;endArrow=block;rounded=0;" parent="1" edge="1">
          <mxGeometry relative="1" as="geometry">
            <mxPoint x="263" y="180" as="sourcePoint" />
            <Array as="points">
              <mxPoint x="263" y="180" />
              <mxPoint x="283" y="180" />
              <mxPoint x="283" y="206" />
            </Array>
            <mxPoint x="263" y="206" as="targetPoint" />
          </mxGeometry>
        </mxCell>
        <mxCell id="kHQ6_kNxc5rF-60axpAb-23" value="6 : Hiện nôi dung file để xác nhận" style="html=1;verticalAlign=bottom;endArrow=open;dashed=1;endSize=8;" parent="1" edge="1">
          <mxGeometry relative="1" as="geometry">
            <mxPoint x="248.82999999999993" y="216" as="sourcePoint" />
            <mxPoint x="79.99666666666678" y="216" as="targetPoint" />
            <Array as="points">
              <mxPoint x="193.33" y="216" />
            </Array>
          </mxGeometry>
        </mxCell>
        <mxCell id="kHQ6_kNxc5rF-60axpAb-24" value="7 : Xác nhận thêm" style="html=1;verticalAlign=bottom;startArrow=oval;startFill=1;endArrow=block;startSize=8;" parent="1" edge="1">
          <mxGeometry width="60" relative="1" as="geometry">
            <mxPoint x="80" y="236.57999999999993" as="sourcePoint" />
            <mxPoint x="255.00000000000023" y="236.57999999999993" as="targetPoint" />
            <Array as="points">
              <mxPoint x="143.5" y="236.57999999999998" />
            </Array>
          </mxGeometry>
        </mxCell>
        <mxCell id="kHQ6_kNxc5rF-60axpAb-25" value="11 : Trả kết quả" style="html=1;verticalAlign=bottom;endArrow=open;dashed=1;endSize=8;exitX=-0.3;exitY=0.375;exitDx=0;exitDy=0;exitPerimeter=0;" parent="1" source="kHQ6_kNxc5rF-60axpAb-18" edge="1">
          <mxGeometry relative="1" as="geometry">
            <mxPoint x="844.5000000000002" y="317" as="sourcePoint" />
            <mxPoint x="660" y="317" as="targetPoint" />
          </mxGeometry>
        </mxCell>
        <mxCell id="kHQ6_kNxc5rF-60axpAb-26" value="12 : Thông báo kết quả" style="html=1;verticalAlign=bottom;endArrow=open;dashed=1;endSize=8;" parent="1" source="kHQ6_kNxc5rF-60axpAb-9" edge="1">
          <mxGeometry relative="1" as="geometry">
            <mxPoint x="630" y="327" as="sourcePoint" />
            <mxPoint x="450" y="327" as="targetPoint" />
          </mxGeometry>
        </mxCell>
        <mxCell id="kHQ6_kNxc5rF-60axpAb-28" value="1: Chọn lớp học chủ nhiệm" style="html=1;verticalAlign=bottom;startArrow=oval;startFill=1;endArrow=block;startSize=8;entryX=-0.2;entryY=0.09;entryDx=0;entryDy=0;entryPerimeter=0;" parent="1" edge="1">
          <mxGeometry width="60" relative="1" as="geometry">
            <mxPoint x="77.5" y="99" as="sourcePoint" />
            <mxPoint x="251" y="98.29999999999995" as="targetPoint" />
            <Array as="points">
              <mxPoint x="141" y="99" />
            </Array>
          </mxGeometry>
        </mxCell>
      </root>
    </mxGraphModel>
  </diagram>
</mxfile>
